<svg xmlns="http://www.w3.org/2000/svg" xmlns:xlink="http://www.w3.org/1999/xlink" width="500" zoomAndPan="magnify" viewBox="0 0 375 374.999991" height="500" preserveAspectRatio="xMidYMid meet" version="1.0"><defs><clipPath id="7e7e16010a"><path d="M 9 9.429688 L 365.484375 9.429688 L 365.484375 172 L 9 172 Z M 9 9.429688 " clip-rule="nonzero"/></clipPath><clipPath id="ffa9427d07"><path d="M 6.953125 187.75 C 6.953125 287.28125 87.632812 367.960938 187.164062 367.960938 C 286.691406 367.960938 367.371094 287.28125 367.371094 187.75 C 367.371094 88.222656 286.691406 7.542969 187.164062 7.542969 C 87.632812 7.542969 6.953125 88.222656 6.953125 187.75 Z M 6.953125 187.75 " clip-rule="nonzero"/></clipPath><clipPath id="cacd1ede7d"><path d="M 187.164062 9.804688 C 285.433594 9.804688 365.109375 89.480469 365.109375 187.75 C 365.109375 286.023438 285.433594 365.699219 187.164062 365.699219 C 88.890625 365.699219 9.214844 286.023438 9.214844 187.75 C 9.214844 89.480469 88.890625 9.804688 187.164062 9.804688 Z M 187.164062 9.804688 " clip-rule="nonzero"/></clipPath><clipPath id="595c3f61ec"><path d="M 9 9.429688 L 365.484375 9.429688 L 365.484375 173 L 9 173 Z M 9 9.429688 " clip-rule="nonzero"/></clipPath><clipPath id="d9ba3c7612"><path d="M 6.953125 187.75 C 6.953125 287.28125 87.632812 367.960938 187.164062 367.960938 C 286.691406 367.960938 367.371094 287.28125 367.371094 187.75 C 367.371094 88.222656 286.691406 7.542969 187.164062 7.542969 C 87.632812 7.542969 6.953125 88.222656 6.953125 187.75 Z M 6.953125 187.75 " clip-rule="nonzero"/></clipPath><clipPath id="4a2ee23a10"><path d="M 187.164062 9.804688 C 285.433594 9.804688 365.109375 89.480469 365.109375 187.75 C 365.109375 286.023438 285.433594 365.699219 187.164062 365.699219 C 88.890625 365.699219 9.214844 286.023438 9.214844 187.75 C 9.214844 89.480469 88.890625 9.804688 187.164062 9.804688 Z M 187.164062 9.804688 " clip-rule="nonzero"/></clipPath><clipPath id="0d29ceefed"><path d="M 9 205 L 365.484375 205 L 365.484375 366 L 9 366 Z M 9 205 " clip-rule="nonzero"/></clipPath><clipPath id="34c06d9373"><path d="M 6.953125 187.75 C 6.953125 287.28125 87.632812 367.960938 187.164062 367.960938 C 286.691406 367.960938 367.371094 287.28125 367.371094 187.75 C 367.371094 88.222656 286.691406 7.542969 187.164062 7.542969 C 87.632812 7.542969 6.953125 88.222656 6.953125 187.75 Z M 6.953125 187.75 " clip-rule="nonzero"/></clipPath><clipPath id="898805c798"><path d="M 187.164062 9.804688 C 285.433594 9.804688 365.109375 89.480469 365.109375 187.75 C 365.109375 286.023438 285.433594 365.699219 187.164062 365.699219 C 88.890625 365.699219 9.214844 286.023438 9.214844 187.75 C 9.214844 89.480469 88.890625 9.804688 187.164062 9.804688 Z M 187.164062 9.804688 " clip-rule="nonzero"/></clipPath><clipPath id="2c5a4597ea"><path d="M 146 146.238281 L 228.675781 146.238281 L 228.675781 229 L 146 229 Z M 146 146.238281 " clip-rule="nonzero"/></clipPath><clipPath id="14016d77bd"><path d="M 6.953125 187.75 C 6.953125 287.28125 87.632812 367.960938 187.164062 367.960938 C 286.691406 367.960938 367.371094 287.28125 367.371094 187.75 C 367.371094 88.222656 286.691406 7.542969 187.164062 7.542969 C 87.632812 7.542969 6.953125 88.222656 6.953125 187.75 Z M 6.953125 187.75 " clip-rule="nonzero"/></clipPath><clipPath id="677f926a12"><path d="M 187.164062 9.804688 C 285.433594 9.804688 365.109375 89.480469 365.109375 187.75 C 365.109375 286.023438 285.433594 365.699219 187.164062 365.699219 C 88.890625 365.699219 9.214844 286.023438 9.214844 187.75 C 9.214844 89.480469 88.890625 9.804688 187.164062 9.804688 Z M 187.164062 9.804688 " clip-rule="nonzero"/></clipPath><clipPath id="b60b858b82"><path d="M 145.648438 145 L 228.675781 145 L 228.675781 229 L 145.648438 229 Z M 145.648438 145 " clip-rule="nonzero"/></clipPath><clipPath id="55665a0a8c"><path d="M 6.953125 187.75 C 6.953125 287.28125 87.632812 367.960938 187.164062 367.960938 C 286.691406 367.960938 367.371094 287.28125 367.371094 187.75 C 367.371094 88.222656 286.691406 7.542969 187.164062 7.542969 C 87.632812 7.542969 6.953125 88.222656 6.953125 187.75 Z M 6.953125 187.75 " clip-rule="nonzero"/></clipPath><clipPath id="4cac42aaba"><path d="M 187.164062 9.804688 C 285.433594 9.804688 365.109375 89.480469 365.109375 187.75 C 365.109375 286.023438 285.433594 365.699219 187.164062 365.699219 C 88.890625 365.699219 9.214844 286.023438 9.214844 187.75 C 9.214844 89.480469 88.890625 9.804688 187.164062 9.804688 Z M 187.164062 9.804688 " clip-rule="nonzero"/></clipPath><clipPath id="2c464f2f64"><path d="M 6.953125 7.542969 L 367.371094 7.542969 L 367.371094 367.960938 L 6.953125 367.960938 Z M 6.953125 7.542969 " clip-rule="nonzero"/></clipPath><clipPath id="0aa1594a75"><path d="M 6.953125 187.75 C 6.953125 287.28125 87.632812 367.960938 187.164062 367.960938 C 286.691406 367.960938 367.371094 287.28125 367.371094 187.75 C 367.371094 88.222656 286.691406 7.542969 187.164062 7.542969 C 87.632812 7.542969 6.953125 88.222656 6.953125 187.75 Z M 6.953125 187.75 " clip-rule="nonzero"/></clipPath><clipPath id="ee3815999b"><path d="M 6.953125 187.75 C 6.953125 287.28125 87.632812 367.960938 187.164062 367.960938 C 286.691406 367.960938 367.371094 287.28125 367.371094 187.75 C 367.371094 88.222656 286.691406 7.542969 187.164062 7.542969 C 87.632812 7.542969 6.953125 88.222656 6.953125 187.75 Z M 6.953125 187.75 " clip-rule="nonzero"/></clipPath><clipPath id="208d6dce96"><path d="M 23.652344 124.113281 L 112.339844 124.113281 L 112.339844 250.542969 L 23.652344 250.542969 Z M 23.652344 124.113281 " clip-rule="nonzero"/></clipPath><clipPath id="485d69ceb8"><path d="M 23.652344 124.113281 L 112.339844 124.113281 L 112.339844 250.542969 L 23.652344 250.542969 Z M 23.652344 124.113281 " clip-rule="nonzero"/></clipPath><clipPath id="9a7c8a9822"><path d="M 254.261719 124.113281 L 350.496094 124.113281 L 350.496094 250.542969 L 254.261719 250.542969 Z M 254.261719 124.113281 " clip-rule="nonzero"/></clipPath><clipPath id="5ab33b80e7"><path d="M 254.261719 124.113281 L 350.496094 124.113281 L 350.496094 250.542969 L 254.261719 250.542969 Z M 254.261719 124.113281 " clip-rule="nonzero"/></clipPath><clipPath id="a4845e1b20"><path d="M 173.058594 124.113281 L 280.617188 124.113281 L 280.617188 250.542969 L 173.058594 250.542969 Z M 173.058594 124.113281 " clip-rule="nonzero"/></clipPath><clipPath id="0f85d107fb"><path d="M 176 125 L 276.480469 125 L 276.480469 239.328125 L 176 239.328125 Z M 176 125 " clip-rule="nonzero"/></clipPath><clipPath id="ad2e8a0a74"><path d="M 173.058594 124.113281 L 280.617188 124.113281 L 280.617188 250.542969 L 173.058594 250.542969 Z M 173.058594 124.113281 " clip-rule="nonzero"/></clipPath><clipPath id="9dc1c015b3"><path d="M 80.460938 124.113281 L 188.019531 124.113281 L 188.019531 250.542969 L 80.460938 250.542969 Z M 80.460938 124.113281 " clip-rule="nonzero"/></clipPath><clipPath id="848c864e7e"><path d="M 84 125 L 184 125 L 184 239.328125 L 84 239.328125 Z M 84 125 " clip-rule="nonzero"/></clipPath><clipPath id="172a0f9052"><path d="M 80.460938 124.113281 L 188.019531 124.113281 L 188.019531 250.542969 L 80.460938 250.542969 Z M 80.460938 124.113281 " clip-rule="nonzero"/></clipPath></defs><g clip-path="url(#7e7e16010a)"><g clip-path="url(#ffa9427d07)"><g clip-path="url(#cacd1ede7d)"><path fill="#ed1c24" d="M 366.761719 171.949219 L 260.875 171.949219 C 253.808594 137.707031 223.488281 111.964844 187.144531 111.964844 C 150.808594 111.964844 120.488281 137.707031 113.421875 171.949219 L 7.535156 171.949219 C 15.296875 79.554688 92.746094 6.992188 187.144531 6.992188 C 281.542969 6.992188 359 79.554688 366.761719 171.949219 Z M 366.761719 171.949219 " fill-opacity="1" fill-rule="nonzero"/></g></g></g><g clip-path="url(#595c3f61ec)"><g clip-path="url(#d9ba3c7612)"><g clip-path="url(#4a2ee23a10)"><path fill="#231f20" d="M 367.261719 172.410156 L 260.5 172.410156 L 260.421875 172.035156 C 253.296875 137.492188 222.476562 112.417969 187.144531 112.417969 C 151.820312 112.417969 121 137.492188 113.875 172.035156 L 113.796875 172.410156 L 7.035156 172.410156 L 7.074219 171.910156 C 10.855469 126.933594 31.269531 85.234375 64.539062 54.480469 C 68.664062 50.679688 72.96875 47.0625 77.433594 43.652344 C 81.894531 40.242188 86.511719 37.046875 91.269531 34.058594 C 96.035156 31.082031 100.921875 28.328125 105.945312 25.804688 C 110.964844 23.277344 116.085938 20.996094 121.324219 18.953125 C 126.554688 16.898438 131.871094 15.101562 137.277344 13.558594 C 142.671875 12.003906 148.136719 10.707031 153.660156 9.664062 C 159.171875 8.625 164.734375 7.835938 170.328125 7.316406 C 175.917969 6.796875 181.53125 6.53125 187.144531 6.53125 C 192.765625 6.53125 198.378906 6.796875 203.96875 7.316406 C 209.5625 7.835938 215.113281 8.625 220.636719 9.664062 C 226.160156 10.707031 231.625 12.003906 237.019531 13.558594 C 242.425781 15.101562 247.742188 16.898438 252.972656 18.953125 C 258.199219 20.996094 263.332031 23.277344 268.351562 25.804688 C 273.367188 28.328125 278.261719 31.082031 283.027344 34.058594 C 287.785156 37.046875 292.402344 40.242188 296.863281 43.652344 C 301.328125 47.0625 305.621094 50.679688 309.75 54.480469 C 343.027344 85.234375 363.441406 126.933594 367.214844 171.910156 Z M 261.246094 171.484375 L 366.261719 171.484375 C 358.269531 79.464844 279.683594 7.453125 187.144531 7.453125 C 94.601562 7.453125 16.027344 79.464844 8.035156 171.484375 L 113.050781 171.484375 C 113.492188 169.382812 114.03125 167.308594 114.660156 165.246094 C 115.28125 163.191406 115.988281 161.167969 116.792969 159.171875 C 117.589844 157.175781 118.464844 155.210938 119.429688 153.292969 C 120.390625 151.378906 121.441406 149.5 122.5625 147.664062 C 123.683594 145.835938 124.882812 144.046875 126.160156 142.316406 C 127.4375 140.585938 128.785156 138.914062 130.199219 137.304688 C 131.613281 135.683594 133.097656 134.128906 134.652344 132.644531 C 136.203125 131.152344 137.804688 129.734375 139.476562 128.378906 C 141.148438 127.035156 142.878906 125.746094 144.65625 124.546875 C 146.433594 123.335938 148.261719 122.207031 150.140625 121.164062 C 152.019531 120.113281 153.933594 119.140625 155.890625 118.257812 C 157.847656 117.371094 159.839844 116.566406 161.867188 115.847656 C 163.890625 115.132812 165.945312 114.503906 168.027344 113.960938 C 170.101562 113.421875 172.203125 112.96875 174.316406 112.605469 C 176.441406 112.242188 178.574219 111.964844 180.714844 111.78125 C 182.847656 111.601562 185 111.503906 187.144531 111.503906 C 189.296875 111.503906 191.4375 111.601562 193.582031 111.78125 C 195.722656 111.964844 197.855469 112.242188 199.980469 112.605469 C 202.09375 112.96875 204.195312 113.421875 206.269531 113.960938 C 208.351562 114.503906 210.40625 115.132812 212.429688 115.847656 C 214.457031 116.566406 216.449219 117.371094 218.40625 118.257812 C 220.363281 119.140625 222.277344 120.113281 224.15625 121.164062 C 226.035156 122.207031 227.863281 123.335938 229.640625 124.546875 C 231.417969 125.746094 233.140625 127.035156 234.808594 128.378906 C 236.480469 129.734375 238.09375 131.152344 239.644531 132.644531 C 241.199219 134.128906 242.683594 135.683594 244.097656 137.304688 C 245.511719 138.914062 246.859375 140.585938 248.136719 142.316406 C 249.414062 144.046875 250.613281 145.835938 251.734375 147.664062 C 252.855469 149.5 253.894531 151.378906 254.859375 153.292969 C 255.832031 155.210938 256.707031 157.175781 257.503906 159.171875 C 258.300781 161.167969 259.015625 163.191406 259.636719 165.246094 C 260.265625 167.308594 260.796875 169.382812 261.246094 171.484375 Z M 261.246094 171.484375 " fill-opacity="1" fill-rule="nonzero"/></g></g></g><g clip-path="url(#0d29ceefed)"><g clip-path="url(#34c06d9373)"><g clip-path="url(#898805c798)"><path fill="#ed1c24" d="M 366.476562 205.609375 C 357.277344 296.539062 280.5 367.496094 187.144531 367.496094 C 93.796875 367.496094 17.019531 296.539062 7.820312 205.609375 L 114.121094 205.609375 C 122.316406 238.308594 151.910156 262.535156 187.144531 262.535156 C 222.386719 262.535156 251.980469 238.308594 260.175781 205.609375 Z M 366.476562 205.609375 " fill-opacity="1" fill-rule="nonzero"/><path fill="#231f20" d="M 187.144531 367.960938 C 181.609375 367.960938 176.097656 367.703125 170.582031 367.203125 C 165.070312 366.691406 159.59375 365.933594 154.160156 364.921875 C 148.714844 363.910156 143.328125 362.652344 138.003906 361.148438 C 132.6875 359.644531 127.4375 357.894531 122.269531 355.910156 C 117.109375 353.925781 112.046875 351.703125 107.082031 349.257812 C 102.121094 346.800781 97.285156 344.125 92.566406 341.238281 C 87.851562 338.335938 83.28125 335.230469 78.847656 331.921875 C 74.425781 328.597656 70.148438 325.089844 66.042969 321.382812 C 61.933594 317.667969 58.011719 313.789062 54.257812 309.71875 C 50.503906 305.648438 46.957031 301.414062 43.59375 297.019531 C 40.234375 292.617188 37.078125 288.078125 34.128906 283.398438 C 31.191406 278.710938 28.457031 273.90625 25.960938 268.960938 C 23.457031 264.027344 21.1875 258.984375 19.140625 253.84375 C 17.105469 248.707031 15.308594 243.476562 13.746094 238.167969 C 12.183594 232.851562 10.875 227.488281 9.804688 222.0625 C 8.742188 216.625 7.925781 211.160156 7.359375 205.660156 L 7.308594 205.148438 L 114.484375 205.148438 L 114.5625 205.5 C 115.574219 209.511719 116.910156 213.414062 118.574219 217.207031 C 120.222656 221 122.191406 224.625 124.449219 228.097656 C 126.710938 231.566406 129.234375 234.816406 132.039062 237.875 C 134.839844 240.921875 137.875 243.710938 141.136719 246.257812 C 144.402344 248.804688 147.851562 251.0625 151.488281 253.03125 C 155.132812 255.003906 158.90625 256.667969 162.820312 258.011719 C 166.730469 259.347656 170.730469 260.371094 174.820312 261.050781 C 178.898438 261.726562 183.007812 262.070312 187.144531 262.070312 C 191.292969 262.070312 195.398438 261.726562 199.476562 261.050781 C 203.566406 260.371094 207.554688 259.347656 211.476562 258.011719 C 215.390625 256.667969 219.164062 255.003906 222.808594 253.03125 C 226.445312 251.0625 229.894531 248.804688 233.160156 246.257812 C 236.421875 243.710938 239.457031 240.921875 242.257812 237.875 C 245.0625 234.816406 247.585938 231.566406 249.847656 228.097656 C 252.109375 224.625 254.0625 221 255.722656 217.207031 C 257.386719 213.414062 258.722656 209.511719 259.722656 205.5 L 259.8125 205.148438 L 366.988281 205.148438 L 366.929688 205.660156 C 366.371094 211.160156 365.554688 216.625 364.492188 222.0625 C 363.421875 227.488281 362.105469 232.851562 360.550781 238.167969 C 358.988281 243.476562 357.191406 248.707031 355.144531 253.84375 C 353.109375 258.984375 350.839844 264.027344 348.335938 268.960938 C 345.828125 273.90625 343.105469 278.710938 340.167969 283.398438 C 337.21875 288.078125 334.0625 292.617188 330.703125 297.019531 C 327.339844 301.414062 323.785156 305.648438 320.039062 309.71875 C 316.285156 313.789062 312.363281 317.667969 308.253906 321.382812 C 304.148438 325.089844 299.871094 328.597656 295.449219 331.921875 C 291.015625 335.230469 286.445312 338.335938 281.730469 341.238281 C 277.011719 344.125 272.175781 346.800781 267.214844 349.257812 C 262.25 351.703125 257.1875 353.925781 252.019531 355.910156 C 246.859375 357.894531 241.609375 359.644531 236.285156 361.148438 C 230.96875 362.652344 225.582031 363.910156 220.136719 364.921875 C 214.703125 365.933594 209.226562 366.691406 203.714844 367.203125 C 198.199219 367.703125 192.675781 367.960938 187.144531 367.960938 Z M 8.332031 206.070312 C 17.875 297.875 94.660156 367.046875 187.144531 367.046875 C 279.636719 367.046875 356.421875 297.875 365.964844 206.070312 L 260.53125 206.070312 C 258.457031 214.101562 255.152344 221.589844 250.632812 228.539062 C 246.101562 235.496094 240.589844 241.539062 234.09375 246.691406 C 230.769531 249.316406 227.261719 251.644531 223.546875 253.667969 C 219.839844 255.703125 215.988281 257.414062 211.988281 258.800781 C 208 260.183594 203.921875 261.234375 199.742188 261.933594 C 195.574219 262.640625 191.378906 262.984375 187.152344 262.984375 C 182.917969 262.984375 178.722656 262.640625 174.554688 261.933594 C 170.386719 261.234375 166.296875 260.183594 162.308594 258.800781 C 158.308594 257.414062 154.457031 255.703125 150.75 253.667969 C 147.042969 251.644531 143.527344 249.316406 140.203125 246.691406 C 133.707031 241.539062 128.195312 235.496094 123.671875 228.539062 C 119.144531 221.589844 115.839844 214.101562 113.765625 206.070312 Z M 8.332031 206.070312 " fill-opacity="1" fill-rule="nonzero"/></g></g></g><g clip-path="url(#2c5a4597ea)"><g clip-path="url(#14016d77bd)"><g clip-path="url(#677f926a12)"><path fill="#ed1c24" d="M 228.15625 187.25 C 228.15625 188.929688 228.046875 190.601562 227.84375 192.273438 C 227.636719 193.941406 227.332031 195.585938 226.917969 197.214844 C 226.503906 198.847656 225.992188 200.449219 225.386719 202.011719 C 224.785156 203.585938 224.078125 205.109375 223.28125 206.59375 C 222.496094 208.066406 221.609375 209.492188 220.636719 210.867188 C 219.664062 212.242188 218.613281 213.550781 217.484375 214.789062 C 216.351562 216.035156 215.152344 217.207031 213.875 218.296875 C 212.597656 219.398438 211.261719 220.410156 209.855469 221.335938 C 208.460938 222.269531 207.007812 223.113281 205.503906 223.859375 C 204 224.605469 202.457031 225.265625 200.875 225.824219 C 199.292969 226.394531 197.679688 226.859375 196.039062 227.222656 C 194.398438 227.585938 192.734375 227.839844 191.066406 227.996094 C 189.382812 228.15625 187.714844 228.214844 186.03125 228.164062 C 184.351562 228.125 182.679688 227.96875 181.019531 227.722656 C 179.359375 227.46875 177.71875 227.113281 176.097656 226.652344 C 174.476562 226.199219 172.894531 225.648438 171.339844 225 C 169.796875 224.351562 168.292969 223.605469 166.828125 222.769531 C 165.375 221.933594 163.96875 221.019531 162.621094 220.007812 C 161.277344 219.003906 160 217.914062 158.789062 216.746094 C 157.582031 215.585938 156.441406 214.347656 155.378906 213.050781 C 154.316406 211.742188 153.34375 210.375 152.449219 208.949219 C 151.566406 207.527344 150.761719 206.050781 150.050781 204.527344 C 149.335938 203.003906 148.726562 201.441406 148.203125 199.839844 C 147.683594 198.246094 147.269531 196.617188 146.957031 194.964844 C 146.632812 193.3125 146.414062 191.652344 146.308594 189.972656 C 146.191406 188.300781 146.179688 186.621094 146.277344 184.941406 C 146.367188 183.269531 146.5625 181.597656 146.859375 179.949219 C 147.164062 178.285156 147.554688 176.65625 148.058594 175.054688 C 148.558594 173.453125 149.148438 171.878906 149.847656 170.347656 C 150.535156 168.8125 151.320312 167.328125 152.195312 165.894531 C 153.070312 164.457031 154.023438 163.082031 155.066406 161.765625 C 156.117188 160.449219 157.238281 159.199219 158.4375 158.019531 C 159.625 156.84375 160.894531 155.742188 162.230469 154.71875 C 163.554688 153.695312 164.953125 152.753906 166.394531 151.898438 C 167.851562 151.054688 169.34375 150.285156 170.886719 149.617188 C 172.429688 148.949219 174.003906 148.378906 175.613281 147.90625 C 177.238281 147.425781 178.867188 147.054688 180.527344 146.789062 C 182.179688 146.511719 183.851562 146.335938 185.53125 146.277344 C 187.210938 146.207031 188.894531 146.238281 190.5625 146.375 C 192.246094 146.523438 193.90625 146.757812 195.546875 147.101562 C 197.199219 147.445312 198.808594 147.886719 200.402344 148.429688 C 201.992188 148.96875 203.546875 149.609375 205.058594 150.34375 C 206.574219 151.074219 208.027344 151.898438 209.445312 152.8125 C 210.859375 153.726562 212.207031 154.71875 213.492188 155.800781 C 214.78125 156.882812 216 158.039062 217.148438 159.269531 C 218.289062 160.496094 219.359375 161.785156 220.34375 163.152344 C 221.335938 164.507812 222.230469 165.921875 223.046875 167.398438 C 223.863281 168.871094 224.578125 170.386719 225.207031 171.949219 C 227.183594 176.851562 228.167969 181.953125 228.15625 187.25 Z M 228.15625 187.25 " fill-opacity="1" fill-rule="nonzero"/></g></g></g><g clip-path="url(#b60b858b82)"><g clip-path="url(#55665a0a8c)"><g clip-path="url(#4cac42aaba)"><path fill="#231f20" d="M 187.144531 228.714844 C 185.503906 228.714844 183.851562 228.617188 182.21875 228.421875 C 180.578125 228.222656 178.957031 227.929688 177.355469 227.535156 C 175.753906 227.152344 174.179688 226.660156 172.636719 226.089844 C 171.09375 225.511719 169.589844 224.84375 168.125 224.085938 C 166.660156 223.328125 165.246094 222.484375 163.878906 221.558594 C 162.515625 220.636719 161.21875 219.625 159.96875 218.542969 C 158.71875 217.460938 157.550781 216.3125 156.441406 215.09375 C 155.328125 213.863281 154.308594 212.585938 153.355469 211.242188 C 152.390625 209.894531 151.527344 208.5 150.738281 207.042969 C 149.953125 205.597656 149.257812 204.105469 148.648438 202.570312 C 148.039062 201.039062 147.515625 199.476562 147.09375 197.882812 C 146.671875 196.292969 146.347656 194.679688 146.121094 193.046875 C 145.886719 191.417969 145.757812 189.777344 145.71875 188.125 C 145.6875 186.472656 145.746094 184.832031 145.914062 183.191406 C 146.070312 181.550781 146.335938 179.917969 146.691406 178.316406 C 147.042969 176.703125 147.496094 175.121094 148.039062 173.558594 C 148.585938 172.007812 149.21875 170.484375 149.945312 169.007812 C 150.671875 167.523438 151.488281 166.089844 152.382812 164.714844 C 153.277344 163.328125 154.257812 162 155.308594 160.734375 C 156.363281 159.464844 157.492188 158.265625 158.691406 157.136719 C 159.890625 156.007812 161.148438 154.945312 162.476562 153.960938 C 163.800781 152.980469 165.175781 152.085938 166.613281 151.257812 C 168.046875 150.445312 169.523438 149.714844 171.035156 149.078125 C 172.558594 148.429688 174.113281 147.886719 175.695312 147.425781 C 177.277344 146.972656 178.886719 146.609375 180.507812 146.34375 C 182.140625 146.082031 183.773438 145.914062 185.421875 145.84375 C 187.074219 145.777344 188.714844 145.804688 190.367188 145.933594 C 192.007812 146.058594 193.640625 146.285156 195.25 146.609375 C 196.875 146.925781 198.464844 147.347656 200.027344 147.859375 C 201.601562 148.371094 203.132812 148.96875 204.628906 149.667969 C 206.121094 150.363281 207.566406 151.140625 208.972656 152.007812 C 210.378906 152.882812 211.722656 153.824219 213.011719 154.855469 C 214.296875 155.878906 215.527344 156.980469 216.675781 158.160156 C 217.835938 159.328125 218.925781 160.566406 219.929688 161.875 C 220.941406 163.179688 221.875 164.539062 222.722656 165.953125 C 223.566406 167.367188 224.324219 168.824219 225 170.324219 C 225.679688 171.839844 226.257812 173.371094 226.75 174.945312 C 227.234375 176.527344 227.636719 178.121094 227.929688 179.742188 C 228.226562 181.363281 228.429688 183.003906 228.53125 184.644531 C 228.636719 186.285156 228.648438 187.9375 228.550781 189.578125 C 228.460938 191.230469 228.273438 192.863281 227.980469 194.492188 C 227.695312 196.113281 227.3125 197.71875 226.828125 199.289062 C 226.359375 200.871094 225.789062 202.414062 225.121094 203.929688 C 224.460938 205.433594 223.703125 206.898438 222.867188 208.320312 C 222.035156 209.738281 221.109375 211.101562 220.117188 212.421875 C 219.113281 213.726562 218.035156 214.976562 216.882812 216.15625 C 215.734375 217.335938 214.523438 218.445312 213.238281 219.488281 C 211.960938 220.519531 210.621094 221.480469 209.226562 222.355469 C 202.476562 226.601562 195.125 228.726562 187.144531 228.714844 Z M 187.144531 146.699219 C 185.71875 146.699219 184.285156 146.777344 182.859375 146.925781 C 181.433594 147.082031 180.019531 147.308594 178.613281 147.613281 C 177.21875 147.917969 175.832031 148.292969 174.464844 148.742188 C 173.109375 149.195312 171.773438 149.714844 170.464844 150.304688 C 169.15625 150.894531 167.890625 151.554688 166.652344 152.28125 C 165.414062 153.007812 164.222656 153.804688 163.066406 154.660156 C 161.914062 155.503906 160.8125 156.417969 159.753906 157.390625 C 158.699219 158.367188 157.699219 159.386719 156.753906 160.46875 C 155.800781 161.539062 154.917969 162.671875 154.089844 163.839844 C 153.265625 165.007812 152.5 166.226562 151.800781 167.476562 C 151.105469 168.722656 150.476562 170.011719 149.90625 171.339844 C 149.34375 172.65625 148.851562 174 148.441406 175.367188 C 148.019531 176.742188 147.671875 178.128906 147.398438 179.542969 C 147.132812 180.949219 146.9375 182.367188 146.808594 183.800781 C 146.691406 185.226562 146.652344 186.660156 146.679688 188.09375 C 146.710938 189.53125 146.820312 190.957031 146.996094 192.378906 C 147.183594 193.796875 147.4375 195.210938 147.773438 196.605469 C 148.105469 198.003906 148.507812 199.378906 148.992188 200.722656 C 149.460938 202.082031 150.011719 203.398438 150.632812 204.695312 C 151.25 205.992188 151.9375 207.25 152.695312 208.46875 C 153.441406 209.6875 154.257812 210.867188 155.132812 211.996094 C 156.019531 213.136719 156.953125 214.21875 157.945312 215.261719 C 158.9375 216.292969 159.980469 217.273438 161.078125 218.199219 C 162.171875 219.121094 163.320312 219.988281 164.507812 220.785156 C 165.699219 221.589844 166.917969 222.328125 168.183594 222.996094 C 169.453125 223.671875 170.75 224.273438 172.085938 224.8125 C 173.414062 225.34375 174.769531 225.804688 176.15625 226.199219 C 177.53125 226.582031 178.925781 226.90625 180.34375 227.140625 C 181.757812 227.386719 183.183594 227.554688 184.609375 227.644531 C 186.042969 227.730469 187.476562 227.75 188.914062 227.691406 C 190.335938 227.632812 191.761719 227.496094 193.1875 227.28125 C 194.601562 227.0625 196.007812 226.777344 197.394531 226.414062 C 198.78125 226.0625 200.144531 225.617188 201.492188 225.117188 C 202.828125 224.605469 204.144531 224.035156 205.425781 223.386719 C 206.703125 222.738281 207.949219 222.03125 209.148438 221.253906 C 210.359375 220.480469 211.515625 219.632812 212.636719 218.730469 C 213.75 217.835938 214.820312 216.871094 215.832031 215.859375 C 216.84375 214.847656 217.796875 213.785156 218.703125 212.664062 C 219.605469 211.554688 220.441406 210.386719 221.21875 209.1875 C 222.003906 207.976562 222.710938 206.738281 223.359375 205.453125 C 224 204.175781 224.578125 202.867188 225.089844 201.519531 C 225.589844 200.183594 226.023438 198.816406 226.386719 197.421875 C 226.75 196.035156 227.035156 194.632812 227.253906 193.214844 C 227.457031 191.800781 227.597656 190.375 227.664062 188.941406 C 227.722656 187.503906 227.703125 186.070312 227.617188 184.644531 C 227.527344 183.210938 227.359375 181.785156 227.113281 180.371094 C 226.878906 178.964844 226.554688 177.570312 226.171875 176.183594 C 225.777344 174.808594 225.316406 173.453125 224.777344 172.113281 C 224.039062 170.246094 223.152344 168.4375 222.140625 166.710938 C 221.121094 164.96875 219.980469 163.320312 218.722656 161.746094 C 217.453125 160.183594 216.085938 158.710938 214.601562 157.351562 C 213.121094 155.988281 211.546875 154.75 209.875 153.617188 C 208.207031 152.488281 206.464844 151.496094 204.648438 150.628906 C 202.828125 149.765625 200.960938 149.039062 199.035156 148.449219 C 197.109375 147.859375 195.144531 147.425781 193.160156 147.132812 C 191.164062 146.835938 189.160156 146.691406 187.144531 146.699219 Z M 187.144531 146.699219 " fill-opacity="1" fill-rule="nonzero"/></g></g></g><g clip-path="url(#2c464f2f64)"><g clip-path="url(#0aa1594a75)"><g clip-path="url(#ee3815999b)"><path stroke-linecap="butt" transform="matrix(1.887, 0, 0, 1.887, 6.954731, 7.54289)" fill="none" stroke-linejoin="miter" d="M -0.000850834 95.499279 C -0.000850834 148.245049 42.754688 191.000587 95.500457 191.000587 C 148.244156 191.000587 190.999695 148.245049 190.999695 95.499279 C 190.999695 42.75558 148.244156 0.0000416562 95.500457 0.0000416562 C 42.754688 0.0000416562 -0.000850834 42.75558 -0.000850834 95.499279 Z M -0.000850834 95.499279 " stroke="#000000" stroke-width="4" stroke-opacity="1" stroke-miterlimit="4"/></g></g></g><path fill="#1d2c5e" d="M 28.800781 149.511719 C 33.570312 147.9375 38.0625 146.484375 42.246094 145.1875 C 46.472656 143.847656 50.886719 142.582031 55.535156 141.402344 C 60.183594 140.210938 64.644531 139.296875 68.910156 138.570312 C 72.164062 138.03125 75.535156 137.765625 78.945312 137.765625 C 84.675781 137.765625 88.398438 137.921875 90.179688 138.226562 C 92.851562 138.71875 95.40625 139.5625 97.777344 140.675781 C 100.175781 141.824219 102.308594 143.308594 104.164062 145.1875 C 106.03125 147.101562 107.574219 149.324219 108.746094 151.878906 C 109.207031 152.949219 109.472656 154.0625 109.472656 155.210938 C 109.472656 159.574219 107.035156 164.929688 102.230469 171.320312 C 97.382812 177.707031 92.546875 183.289062 87.664062 188.035156 C 82.816406 192.773438 79.171875 196.183594 76.773438 198.246094 L 87.386719 235.082031 L 71.929688 246.101562 L 44.761719 169.589844 C 44.683594 169.589844 44.339844 169.933594 43.644531 170.699219 C 42.984375 171.425781 42.089844 172.390625 41.007812 173.570312 C 39.929688 174.757812 39.257812 175.484375 38.996094 175.75 C 38.875 175.75 38.492188 174.90625 37.835938 173.265625 C 37.175781 171.585938 36.320312 169.246094 35.238281 166.265625 C 34.148438 163.28125 32.910156 159.988281 31.554688 156.359375 C 30.199219 152.722656 29.265625 150.425781 28.800781 149.511719 Z M 67.042969 165.726562 L 71.929688 182.945312 C 74.375 180.5 77.394531 177.128906 81.039062 172.882812 C 84.636719 168.675781 86.464844 165.578125 86.464844 163.664062 C 86.464844 162.933594 86.148438 162.511719 85.53125 162.40625 C 83.75 162.019531 82.003906 161.824219 80.261719 161.824219 C 75.035156 161.824219 70.652344 163.132812 67.042969 165.726562 Z M 67.042969 165.726562 " fill-opacity="1" fill-rule="nonzero"/><g clip-path="url(#208d6dce96)"><path stroke-linecap="butt" transform="matrix(0.387484, 0, 0, 0.382538, -6562.183725, -11292.139898)" fill="none" stroke-linejoin="miter" d="M 17009.701347 29909.801006 C 17022.000239 29905.685807 17033.593458 29901.887161 17044.400353 29898.496971 C 17055.30806 29895.004668 17066.689576 29891.685958 17078.686037 29888.602111 C 17090.692578 29885.497841 17102.205148 29883.108371 17113.213665 29881.209048 C 17121.601107 29879.789661 17130.311142 29879.095285 17139.111907 29879.095285 C 17153.89074 29879.095285 17163.508071 29879.513953 17168.094953 29880.310443 C 17175.000478 29881.58687 17181.593491 29883.802747 17187.702613 29886.702788 C 17193.892384 29889.704944 17199.396642 29893.585281 17204.195226 29898.496971 C 17209.013973 29903.510775 17212.995991 29909.310858 17216.010228 29915.989123 C 17217.199793 29918.797262 17217.885305 29921.697303 17217.885305 29924.699459 C 17217.885305 29936.105608 17211.594724 29950.115668 17199.195021 29966.81133 C 17186.684426 29983.506991 17174.214156 29998.099102 17161.60275 30010.516181 C 17149.102237 30022.892414 17139.686527 30031.806979 17133.506838 30037.208816 L 17160.897076 30133.502449 L 17120.996243 30162.298636 L 17050.892556 29962.287673 C 17050.690935 29962.287673 17049.803801 29963.186278 17047.999292 29965.187715 C 17046.305674 29967.097249 17043.98703 29969.609257 17041.204658 29972.693104 C 17038.412204 29975.807585 17036.688343 29977.706908 17036.002831 29978.401284 C 17035.700399 29978.401284 17034.712455 29976.185408 17033.008756 29971.896614 C 17031.315138 29967.505706 17029.107386 29961.389069 17026.314933 29953.607972 C 17023.502317 29945.79624 17020.306621 29937.188018 17016.798413 29927.711826 C 17013.300285 29918.205 17010.890912 29912.190477 17009.701347 29909.801006 Z M 17108.394919 29952.188585 L 17120.996243 29997.200497 C 17127.317067 29990.808152 17135.099645 29981.995702 17144.505274 29970.895895 C 17153.789929 29959.898202 17158.507865 29951.810763 17158.507865 29946.796959 C 17158.507865 29944.897636 17157.70138 29943.794803 17156.098492 29943.508883 C 17151.51161 29942.508165 17146.995295 29941.987383 17142.509224 29941.987383 C 17129.010685 29941.987383 17117.699737 29945.408206 17108.394919 29952.188585 Z M 17108.394919 29952.188585 " stroke="#1d2c5e" stroke-width="14.58" stroke-opacity="1" stroke-miterlimit="2"/></g><path fill="#ffcb05" d="M 27.683594 138.648438 C 32.449219 137.078125 36.941406 135.621094 41.128906 134.324219 C 45.351562 132.988281 49.765625 131.722656 54.414062 130.53125 C 59.0625 129.351562 63.527344 128.429688 67.78125 127.703125 C 71.035156 127.171875 74.40625 126.90625 77.816406 126.90625 C 83.554688 126.90625 87.269531 127.054688 89.058594 127.359375 C 91.730469 127.859375 94.289062 128.703125 96.644531 129.804688 C 99.054688 130.953125 101.1875 132.449219 103.042969 134.324219 C 104.902344 136.230469 106.453125 138.453125 107.613281 141.019531 C 108.078125 142.089844 108.351562 143.199219 108.351562 144.351562 C 108.351562 148.703125 105.914062 154.0625 101.109375 160.449219 C 96.261719 166.835938 91.417969 172.429688 86.53125 177.167969 C 81.699219 181.914062 78.050781 185.3125 75.652344 187.378906 L 86.269531 224.222656 L 70.808594 235.242188 L 43.644531 158.730469 C 43.566406 158.730469 43.21875 159.074219 42.523438 159.839844 C 41.863281 160.566406 40.96875 161.519531 39.890625 162.710938 C 38.796875 163.898438 38.140625 164.617188 37.875 164.890625 C 37.757812 164.890625 37.363281 164.046875 36.703125 162.40625 C 36.046875 160.714844 35.199219 158.386719 34.109375 155.398438 C 33.027344 152.417969 31.789062 149.125 30.433594 145.492188 C 29.078125 141.863281 28.144531 139.5625 27.683594 138.648438 Z M 65.921875 154.867188 L 70.808594 172.074219 C 73.246094 169.628906 76.273438 166.265625 79.910156 162.019531 C 83.515625 157.816406 85.335938 154.710938 85.335938 152.800781 C 85.335938 152.074219 85.03125 151.652344 84.410156 151.535156 C 82.621094 151.152344 80.882812 150.964844 79.132812 150.964844 C 73.902344 150.964844 69.53125 152.261719 65.921875 154.867188 Z M 65.921875 154.867188 " fill-opacity="1" fill-rule="nonzero"/><g clip-path="url(#485d69ceb8)"><path stroke-linecap="butt" transform="matrix(0.387484, 0, 0, 0.382538, -6563.308125, -11303.003738)" fill="none" stroke-linejoin="miter" d="M 17009.709879 29909.812677 C 17022.008772 29905.697477 17033.60199 29901.898831 17044.408886 29898.508641 C 17055.316592 29895.016338 17066.698108 29891.697628 17078.694569 29888.583147 C 17090.701111 29885.509512 17102.213681 29883.089407 17113.191954 29881.190084 C 17121.589477 29879.801331 17130.289431 29879.106955 17139.090196 29879.106955 C 17153.899272 29879.106955 17163.48636 29879.494989 17168.103485 29880.291479 C 17175.009011 29881.59854 17181.602024 29883.814417 17187.690984 29886.683824 C 17193.900916 29889.696191 17199.405175 29893.596951 17204.203759 29898.508641 C 17208.992262 29903.491811 17213.004524 29909.291894 17215.998598 29916.000793 C 17217.188163 29918.798721 17217.893838 29921.708974 17217.893838 29924.711129 C 17217.893838 29936.096856 17211.603257 29950.096704 17199.203553 29966.792366 C 17186.70304 29983.498239 17174.192445 29998.110772 17161.591121 30010.497217 C 17149.110769 30022.904085 17139.69506 30031.798226 17133.505289 30037.189852 L 17160.905609 30133.514119 L 17121.004775 30162.310306 L 17050.901088 29962.299344 C 17050.699467 29962.299344 17049.812334 29963.197948 17048.007824 29965.199385 C 17046.304125 29967.108919 17044.005644 29969.600504 17041.21319 29972.704774 C 17038.400574 29975.809044 17036.696875 29977.687944 17036.011363 29978.402743 C 17035.708932 29978.402743 17034.690745 29976.197078 17032.997127 29971.908284 C 17031.293428 29967.486742 17029.115919 29961.400739 17026.293222 29953.589008 C 17023.51085 29945.80791 17020.315154 29937.199688 17016.806945 29927.692862 C 17013.308818 29918.206459 17010.899444 29912.202147 17009.709879 29909.812677 Z M 17108.403451 29952.200255 L 17121.004775 29997.191745 C 17127.295357 29990.789188 17135.108178 29982.007372 17144.493644 29970.907565 C 17153.798462 29959.909873 17158.496235 29951.791799 17158.496235 29946.808629 C 17158.496235 29944.899094 17157.709913 29943.796262 17156.107024 29943.489919 C 17151.489899 29942.489201 17147.003828 29941.999053 17142.487513 29941.999053 C 17128.999056 29941.999053 17117.708269 29945.389242 17108.403451 29952.200255 Z M 17108.403451 29952.200255 " stroke="#395faa" stroke-width="14.58" stroke-opacity="1" stroke-miterlimit="2"/></g><path fill="#1d2c5e" d="M 338.042969 241.070312 L 310.820312 242.917969 L 303.558594 231.171875 L 297.199219 247.429688 L 279.488281 247.859375 L 258.652344 151.210938 L 290.851562 154.355469 L 296.765625 187.339844 L 303.085938 175.132812 L 311.726562 190.523438 L 316.265625 139.464844 L 347.558594 137.226562 Z M 338.042969 241.070312 " fill-opacity="1" fill-rule="nonzero"/><g clip-path="url(#9a7c8a9822)"><path stroke-linecap="butt" transform="matrix(0.363021, 0, 0, 0.361328, -8799.012618, -10651.476741)" fill="none" stroke-linejoin="miter" d="M 25169.50353 30145.794152 L 25094.514334 30150.907671 L 25074.499999 30118.399529 L 25056.982075 30163.394171 L 25008.205202 30164.583361 L 24950.809253 29897.102 L 25039.496432 29905.804712 L 25055.798431 29997.091294 L 25073.197991 29963.307475 L 25096.999985 30005.902114 L 25109.503565 29864.593858 L 25195.705093 29858.399257 Z M 25169.50353 30145.794152 " stroke="#1d2c5e" stroke-width="14.58" stroke-opacity="1" stroke-miterlimit="2"/></g><path fill="#ffcb05" d="M 336.992188 230.808594 L 309.757812 232.65625 L 302.507812 220.910156 L 296.148438 237.167969 L 278.4375 237.601562 L 257.601562 140.949219 L 289.796875 144.09375 L 295.714844 177.078125 L 302.035156 164.871094 L 310.671875 180.261719 L 315.214844 129.207031 L 346.496094 126.964844 Z M 336.992188 230.808594 " fill-opacity="1" fill-rule="nonzero"/><g clip-path="url(#5ab33b80e7)"><path stroke-linecap="butt" transform="matrix(0.363021, 0, 0, 0.361328, -8800.065258, -10661.7377)" fill="none" stroke-linejoin="miter" d="M 25169.50865 30145.79205 L 25094.487173 30150.905569 L 25074.505119 30118.408238 L 25056.987195 30163.392069 L 25008.210322 30164.59207 L 24950.814373 29897.099899 L 25039.501552 29905.813421 L 25055.803551 29997.089192 L 25073.203111 29963.316184 L 25097.005105 30005.900012 L 25109.508685 29864.602567 L 25195.688692 29858.397156 Z M 25169.50865 30145.79205 " stroke="#395faa" stroke-width="14.58" stroke-opacity="1" stroke-miterlimit="2"/></g><path fill="#1d2c5e" d="M 230.132812 133.960938 L 277.316406 246.148438 L 257.257812 248.105469 L 234.839844 196.46875 L 222.257812 194.542969 L 202.621094 235.683594 L 177.808594 236.863281 Z M 223.074219 183.269531 L 234.457031 184.824219 L 229.75 166.550781 Z M 223.074219 183.269531 " fill-opacity="1" fill-rule="nonzero"/><g clip-path="url(#a4845e1b20)"><path stroke-linecap="butt" transform="matrix(0.314593, 0, 0, 0.310666, 74.297637, -9130.90452)" fill="none" stroke-linejoin="miter" d="M 495.354782 29822.58443 L 645.337729 30183.704281 L 581.577283 30190.00376 L 510.317068 30023.790553 L 470.33486 30017.591664 L 407.915432 30150.019041 L 329.031281 30153.816332 Z M 472.917562 29981.303646 L 509.100219 29986.295449 L 494.137933 29927.487735 Z M 472.917562 29981.303646 " stroke="#1d2c5e" stroke-width="14.58" stroke-opacity="1" stroke-miterlimit="2"/></g><g clip-path="url(#0f85d107fb)"><path fill="#ffcb05" d="M 229.207031 125.144531 L 276.394531 237.324219 L 256.324219 239.28125 L 233.90625 187.652344 L 221.335938 185.726562 L 201.699219 226.859375 L 176.882812 228.035156 Z M 222.152344 174.445312 L 233.523438 175.996094 L 228.824219 157.734375 Z M 222.152344 174.445312 " fill-opacity="1" fill-rule="nonzero"/></g><g clip-path="url(#ad2e8a0a74)"><path stroke-linecap="butt" transform="matrix(0.314593, 0, 0, 0.310666, 73.372704, -9139.7262)" fill="none" stroke-linejoin="miter" d="M 495.352088 29822.601404 L 645.347452 30183.696107 L 581.549755 30189.995586 L 510.28954 30023.807527 L 470.332166 30017.608638 L 407.912738 30149.998294 L 329.028586 30153.795585 Z M 472.927284 29981.295472 L 509.07269 29986.287275 L 494.135238 29927.517282 Z M 472.927284 29981.295472 " stroke="#395faa" stroke-width="14.58" stroke-opacity="1" stroke-miterlimit="2"/></g><path fill="#1d2c5e" d="M 137.53125 133.960938 L 184.714844 246.148438 L 164.65625 248.105469 L 142.238281 196.46875 L 129.660156 194.542969 L 110.023438 235.683594 L 85.207031 236.863281 Z M 130.472656 183.269531 L 141.847656 184.824219 L 137.148438 166.550781 Z M 130.472656 183.269531 " fill-opacity="1" fill-rule="nonzero"/><g clip-path="url(#9dc1c015b3)"><path stroke-linecap="butt" transform="matrix(0.314593, 0, 0, 0.310666, -18.303246, -9130.90452)" fill="none" stroke-linejoin="miter" d="M 495.352624 29822.58443 L 645.335571 30183.704281 L 581.575125 30190.00376 L 510.31491 30023.790553 L 470.332702 30017.591664 L 407.913274 30150.019041 L 329.029123 30153.816332 Z M 472.927821 29981.303646 L 509.073227 29986.295449 L 494.135774 29927.487735 Z M 472.927821 29981.303646 " stroke="#1d2c5e" stroke-width="14.58" stroke-opacity="1" stroke-miterlimit="2"/></g><g clip-path="url(#848c864e7e)"><path fill="#ffcb05" d="M 136.605469 125.144531 L 183.792969 237.324219 L 163.722656 239.28125 L 141.304688 187.652344 L 128.734375 185.726562 L 109.097656 226.859375 L 84.28125 228.035156 Z M 129.550781 174.445312 L 140.921875 175.996094 L 136.222656 157.734375 Z M 129.550781 174.445312 " fill-opacity="1" fill-rule="nonzero"/></g><g clip-path="url(#172a0f9052)"><path stroke-linecap="butt" transform="matrix(0.314593, 0, 0, 0.310666, -19.228178, -9139.7262)" fill="none" stroke-linejoin="miter" d="M 495.36234 29822.601404 L 645.345287 30183.696107 L 581.54759 30189.995586 L 510.287376 30023.807527 L 470.330001 30017.608638 L 407.910573 30149.998294 L 329.026422 30153.795585 Z M 472.92512 29981.295472 L 509.070526 29986.287275 L 494.133074 29927.517282 Z M 472.92512 29981.295472 " stroke="#395faa" stroke-width="14.58" stroke-opacity="1" stroke-miterlimit="2"/></g></svg>